# xmcd CD database file
#
# Track frame offsets:
#	150
#	13972
#	25507
#	40362
#	50167
#	66620
#	79762
#	93417
#	104415
#	122167
#	140722
#	165942
#	186500
#	213217
#	224370
#	236975
#	265410
#	279687
#	296820
#
# Disc length: 4219 seconds
#
# Revision: 3
# Processed by: cddbd v1.5.2PL0 Copyright (c) Steve Scherf et al.
# Submitted via: CDex 1.51
#
DISCID=33107913
DTITLE=Muddy Waters - One More Mile - Chess Collectibles, Vol. One (Disc-2)
DYEAR=1900
DGENRE=Blues
TTITLE0=Thirteen Highway
TTITLE1=Early In The Morning Blues
TTITLE2=One More Mile
TTITLE3=Come Back Baby (Let's Talk It Over)
TTITLE4=My Dog Can't Bark
TTITLE5=Roll Me Over Baby
TTITLE6=Trouble In Mind (Hornless Remix)
TTITLE7=Trouble, Trouble (Hornless Remix)
TTITLE8=My Pencil Won't Write No More
TTITLE9=Cold Up North
TTITLE10=Streamline Woman
TTITLE11=Rock Me
TTITLE12=Standin' Around Cryin'
TTITLE13=Hoochie Coochie Man
TTITLE14=Baby Please Don't Go
TTITLE15=You Can't Lose What You Ain't Never Had
TTITLE16=Feel Like Goin' Home
TTITLE17=Where's My Woman Been
TTITLE18=Rollin' And Tumblin'
EXTD=
EXTT0=
EXTT1=
EXTT2=
EXTT3=
EXTT4=
EXTT5=
EXTT6=
EXTT7=
EXTT8=
EXTT9=
EXTT10=
EXTT11=
EXTT12=
EXTT13=
EXTT14=
EXTT15=
EXTT16=
EXTT17=
EXTT18=
PLAYORDER=
